# xmcd
#
# Track frame offsets: 
#        150
#        6635
#        20950
#        33244
#        46012
#        62800
#        74802
#        85675
#        100874
#        121033
#        136901
#        155089
#        171243
#        181900
#        198325
#        210731
#        222935
#        235334
#        252128
#        273555
#        287751
#
# Disc length: 3943 seconds
#
# Revision: 0
# Processed by: cddbd v1.5.2PL0 Copyright (c) Steve Scherf et al.
# Submitted via: ExactAudioCopy v0.95b3
#
DISCID=390f6515
DTITLE=The Pogues  - Just Look Them Straight In The Eye And Say...Pogu
DTITLE=e Mahone!! [CD 1)
DYEAR=1900
DGENRE=
TTITLE0=The Kerry Polka
TTITLE1=The Rocky Road To Dublin
TTITLE2=Boys From The County Hell
TTITLE3=Nw3
TTITLE4=The Donegal Express - The Hen And The Cock Are In Carrickmacro
TTITLE4=ss
TTITLE5=Do You Believe In Magic
TTITLE6=Hot Asphalt
TTITLE7=Danny Boy
TTITLE8=Maggie May
TTITLE9=Haunted
TTITLE10=The Travelling People
TTITLE11=Eve Of Destruction
TTITLE12=My Baby's Gone
TTITLE13=North Sea Holes
TTITLE14=Garbo (aka In And Out)
TTITLE15=The Last Of McGee
TTITLE16=Joe Strummer and the Astro-Physicians - Afro-Cuban-Be-Bop (Al
TTITLE16=t. Mix)
TTITLE17=Young Ned Of The Hill (Dub Version)
TTITLE18=Pinned Down - I'm Alone In The Wilderness
TTITLE19=When The Comes In Ship
TTITLE20=Waxies Dargle
EXTD=
EXTT0=
EXTT1=
EXTT2=
EXTT3=
EXTT4=
EXTT5=
EXTT6=
EXTT7=
EXTT8=
EXTT9=
EXTT10=
EXTT11=
EXTT12=
EXTT13=
EXTT14=
EXTT15=
EXTT16=
EXTT17=
EXTT18=
EXTT19=
EXTT20=
PLAYORDER=
